#!OML:ASF E:\Steps\Project 1\Capture day 1\Session 2\Subject.ASF
:FULLY-SPECIFIED
:DEGREES
525
root 9.94456 16.3869 0.372791 -150.999 0.734798 179.364
lowerback -24.4134 -1.85307 -3.46743
upperback -3.49403 -0.681931 -0.357954
thorax 9.7967 -0.100103 1.43193
lowerneck 3.05257 -1.10833 -4.34729
upperneck 2.42435 -1.53875 7.28912
head 0.334473 -0.738075 3.10148
rclavicle -1.98785e-016 7.95139e-015
rhumerus -29.4794 -21.5983 -80.1341
rradius 21.2005
rwrist 11.2355
rhand -12.2138 -54.1933
rfingers 7.12502
rthumb 13.851 -83.7121
lclavicle -1.98785e-016 7.95139e-015
lhumerus -23.4954 2.69922 85.3528
lradius 14.8139
lwrist -10.8521
lhand -26.2685 -13.6707
lfingers 7.12502
lthumb 0.286415 16.3088
rfemur -26.1473 7.46504 14.6454
rtibia 8.67804
rfoot -20.4083 -13.1231
rtoes -20.7367
lfemur -27.1009 -8.19741 -15.3758
ltibia 8.14575
lfoot -7.9561 9.11158
ltoes -36.299
526
root 9.94539 16.3878 0.390484 -150.891 0.534729 179.323
lowerback -24.5801 -1.94847 -3.53716
upperback -3.46611 -0.779136 -0.333561
thorax 9.9226 -0.149262 1.46666
lowerneck 2.80563 -1.11603 -4.31266
upperneck 2.51239 -1.54753 7.27752
head 0.40556 -0.737534 3.08912
rclavicle -1.09332e-015 1.19271e-015
rhumerus -29.1029 -21.2935 -80.4635
rradius 21.4756
rwrist 10.8969
rhand -12.3392 -53.6735
rfingers 7.12502
rthumb 13.7301 -83.2005
lclavicle -1.09332e-015 1.19271e-015
lhumerus -23.2751 2.15839 85.5322
lradius 15.0819
lwrist -10.5107
lhand -26.416 -13.8411
lfingers 7.12502
lthumb 0.143955 16.1385
rfemur -26.3622 7.38661 14.6185
rtibia 8.78404
rfoot -20.3793 -13.2929
rtoes -21.1494
lfemur -27.4209 -8.15496 -15.3595
ltibia 8.27964
lfoot -7.9186 8.92836
ltoes -36.8434
527
root 9.94328 16.3901 0.403985 -150.916 0.336877 179.334
lowerback -24.6527 -2.0272 -3.51919
upperback -3.47502 -0.880324 -0.312194
thorax 9.9561 -0.194322 1.44701
lowerneck 2.75363 -1.10653 -4.25792
upperneck 2.57259 -1.53336 7.25367
head 0.432089 -0.727852 3.07011
rclavicle 1.32192e-014 -1.15295e-014
rhumerus -28.9957 -21.1567 -80.6935
rradius 21.7892
rwrist 10.6732
rhand -11.7467 -54.734
rfingers 7.12502
rthumb 14.301 -84.2215
lclavicle 1.32192e-014 -1.15295e-014
lhumerus -23.2164 1.88794 85.568
lradius 15.2236
lwrist -10.5396
lhand -26.6995 -14.1439
lfingers 7.12502
lthumb -0.12983 15.8358
rfemur -26.2721 7.28384 14.683
rtibia 8.6614
rfoot -20.3529 -13.2914
rtoes -20.5791
lfemur -27.5298 -8.13565 -15.3188
ltibia 8.3575
lfoot -7.88753 8.74858
ltoes -37.0464
528
root 9.93939 16.3908 0.415312 -151.052 0.179475 179.355
lowerback -24.6712 -2.05207 -3.4673
upperback -3.45356 -0.927108 -0.314246
thorax 9.99136 -0.215924 1.39925
lowerneck 2.79945 -1.09309 -4.22798
upperneck 2.64672 -1.51544 7.24115
head 0.446128 -0.717098 3.06033
rclavicle 2.83268e-015 2.62396e-014
rhumerus -28.9584 -21.1158 -80.8439
rradius 22.0117
rwrist 10.5197
rhand -11.5682 -55.3248
rfingers 7.12502
rthumb 14.4731 -84.8001
lclavicle 2.83268e-015 2.62396e-014
lhumerus -23.1462 1.54431 85.6467
lradius 15.3965
lwrist -10.5083
lhand -26.8625 -14.2234
lfingers 7.12502
lthumb -0.287329 15.7562
rfemur -25.9905 7.19766 14.7603
rtibia 8.4421
rfoot -20.3495 -13.2346
rtoes -19.8274
lfemur -27.4563 -8.18415 -15.2926
ltibia 8.36425
lfoot -7.88585 8.64115
ltoes -37.1304
529
root 9.93726 16.3889 0.428049 -151.121 0.0710786 179.312
lowerback -24.6659 -1.13858 -3.95834
upperback -3.44784 -1.20215 -0.372688
thorax 9.97606 -1.04539 1.40752
lowerneck 2.80694 -1.07413 -4.23037
upperneck 2.72448 -1.49109 7.24181
head 0.468017 -0.70301 3.06095
rclavicle 7.70291e-015 -4.37326e-015
rhumerus -28.8654 -20.9586 -80.9752
rradius 22.1838
rwrist 10.3368
rhand -11.7428 -54.8291
rfingers 7.12502
rthumb 14.3048 -84.3163
lclavicle 7.70291e-015 -4.37326e-015
lhumerus -23.0709 1.05737 85.7996
lradius 15.6829
lwrist -10.1337
lhand -26.9109 -14.308
lfingers 7.12502
lthumb -0.333993 15.6714
rfemur -25.8626 7.18366 14.711
rtibia 8.31028
rfoot -20.2867 -13.3144
rtoes -19.559
lfemur -27.4848 -8.26363 -15.3227
ltibia 8.42842
lfoot -7.93887 8.59223
ltoes -37.1547
530
root 9.9357 16.3895 0.440792 -151.096 -0.0417188 179.276
lowerback -24.6943 -1.17134 -4.01326
upperback -3.49804 -1.24061 -0.368074
thorax 9.93714 -1.06854 1.43129
lowerneck 2.74949 -1.06812 -4.24498
upperneck 2.79423 -1.4842 7.2444
head 0.499902 -0.697436 3.06424
rclavicle -1.40143e-014 -3.97569e-015
rhumerus -28.8141 -20.6593 -81.119
rradius 22.4332
rwrist 10.0522
rhand -11.6186 -54.5224
rfingers 7.12502
rthumb 14.4245 -84.0011
lclavicle -1.40143e-014 -3.97569e-015
lhumerus -23.0277 0.794182 85.9252
lradius 15.9453
lwrist -9.95389
lhand -27.0679 -14.3225
lfingers 7.12502
lthumb -0.485642 15.6567
rfemur -25.9753 7.1738 14.6568
rtibia 8.41925
rfoot -20.3167 -13.428
rtoes -19.5738
lfemur -27.6277 -8.2904 -15.3318
ltibia 8.51108
lfoot -7.97376 8.51112
ltoes -37.1728
531
root 9.93389 16.392 0.453086 -151.09 -0.209673 179.288
lowerback -24.6911 -1.17867 -4.0136
upperback -3.58257 -1.26948 -0.329839
thorax 9.84229 -1.08601 1.46545
lowerneck 2.71756 -1.07523 -4.30364
upperneck 2.85709 -1.49657 7.25551
head 0.526893 -0.702555 3.07904
rclavicle 3.03147e-015 3.18055e-015
rhumerus -28.9245 -20.2153 -81.2393
rradius 22.816
rwrist 9.66128
rhand -11.7034 -54.1296
rfingers 7.12502
rthumb 14.3428 -83.6141
lclavicle 3.03147e-015 3.18055e-015
lhumerus -23.0433 0.568565 86.1281
lradius 16.166
lwrist -9.8521
lhand -27.3848 -14.3412
lfingers 7.12502
lthumb -0.791698 15.6371
rfemur -26.0733 7.17976 14.6819
rtibia 8.57376
rfoot -20.4277 -13.5895
rtoes -19.6274
lfemur -27.7823 -8.29752 -15.2907
ltibia 8.65898
lfoot -8.0145 8.38068
ltoes -37.2581
532
root 9.93195 16.3926 0.462037 -151.171 -0.338797 179.331
lowerback -24.7165 -1.17786 -4.00481
upperback -3.58203 -1.27344 -0.277101
thorax 9.85766 -1.08801 1.51745
lowerneck 2.58663 -1.08577 -4.34951
upperneck 2.91759 -1.51236 7.26764
head 0.570526 -0.708312 3.09124
rclavicle -5.2181e-015 -1.55052e-014
rhumerus -28.8807 -19.793 -81.3605
rradius 23.0662
rwrist 9.30424
rhand -12.2707 -52.9012
rfingers 7.12502
rthumb 13.7962 -82.4237
lclavicle -5.2181e-015 -1.55052e-014
lhumerus -22.8976 0.312834 86.3433
lradius 16.3492
lwrist -9.61229
lhand -27.5211 -14.6829
lfingers 7.12502
lthumb -0.92334 15.2949
rfemur -26.0136 7.12894 14.7726
rtibia 8.62903
rfoot -20.4847 -13.5916
rtoes -19.4435
lfemur -27.8239 -8.36236 -15.2295
ltibia 8.82311
lfoot -8.10455 8.35527
ltoes -37.4946
533
root 9.93146 16.3923 0.471478 -151.256 -0.392785 179.379
lowerback -24.7654 -1.15605 -4.01378
upperback -3.52925 -1.23247 -0.250783
thorax 9.94151 -1.06749 1.56407
lowerneck 2.3851 -1.09658 -4.37593
upperneck 2.98504 -1.52725 7.2854
head 0.628551 -0.712322 3.10133
rclavicle -7.50412e-015 9.54166e-015
rhumerus -28.6286 -19.5594 -81.4569
rradius 23.0542
rwrist 9.01991
rhand -12.7163 -51.4471
rfingers 7.12502
rthumb 13.3667 -80.9984
lclavicle -7.50412e-015 9.54166e-015
lhumerus -22.6056 0.0382157 86.4836
lradius 16.5348
lwrist -9.24624
lhand -27.2242 -14.7632
lfingers 7.12502
lthumb -0.636614 15.2156
rfemur -25.9168 7.05835 14.8547
rtibia 8.54056
rfoot -20.3955 -13.486
rtoes -19.4441
lfemur -27.8257 -8.39195 -15.1609
ltibia 8.896
lfoot -8.07328 8.38074
ltoes -37.8878
534
root 9.93152 16.393 0.482209 -151.321 -0.438045 179.429
lowerback -24.6957 -1.10061 -4.02675
upperback -3.5712 -1.16448 -0.253884
thorax 9.85335 -1.03589 1.59213
lowerneck 2.35032 -1.09981 -4.39696
upperneck 3.05668 -1.53259 7.29905
head 0.658151 -0.712887 3.10993
rclavicle -2.88238e-015 2.34566e-014
rhumerus -28.5557 -19.3607 -81.5327
rradius 23.1155
rwrist 8.67905
rhand -12.5771 -51.1767
rfingers 7.12502
rthumb 13.5009 -80.7191
lclavicle -2.88238e-015 2.34566e-014
lhumerus -22.6079 -0.602471 86.6726
lradius 16.9691
lwrist -8.46642
lhand -26.7407 -14.2242
lfingers 7.12502
lthumb -0.169604 15.7554
rfemur -25.8073 7.12967 14.8987
rtibia 8.35601
rfoot -20.2464 -13.5688
rtoes -19.6542
lfemur -27.8404 -8.39095 -15.0738
ltibia 8.91558
lfoot -7.95406 8.38111
ltoes -37.8237
535
root 9.92904 16.3943 0.490208 -151.407 -0.502522 179.52
lowerback -24.6496 -1.06567 -3.97737
upperback -3.60417 -1.13776 -0.258574
thorax 9.78954 -1.02159 1.56849
lowerneck 2.36697 -1.07946 -4.40125
upperneck 3.13743 -1.5064 7.2939
head 0.679271 -0.697968 3.10919
rclavicle 1.78906e-015 -1.94809e-014
rhumerus -28.5092 -19.0456 -81.7085
rradius 23.2888
rwrist 8.33846
rhand -12.135 -51.9904
rfingers 7.12502
rthumb 13.9269 -81.504
lclavicle 1.78906e-015 -1.94809e-014
lhumerus -22.6439 -1.18152 86.8058
lradius 17.3551
lwrist -7.81078
lhand -26.4243 -13.6603
lfingers 7.12502
lthumb 0.135956 16.3194
rfemur -25.6893 7.30821 14.975
rtibia 8.26606
rfoot -20.1998 -13.7263
rtoes -19.4592
lfemur -27.7963 -8.38346 -14.9695
ltibia 8.90761
lfoot -7.92767 8.3796
ltoes -37.5759
536
root 9.92112 16.3977 0.489349 -151.661 -0.461772 179.613
lowerback -24.6243 -1.01549 -3.86637
upperback -3.51818 -1.08234 -0.27202
thorax 9.86878 -0.986339 1.508
lowerneck 2.34375 -1.0474 -4.4723
upperneck 3.21596 -1.46666 7.30971
head 0.706682 -0.676984 3.12819
rclavicle 1.13804e-014 5.96354e-015
rhumerus -28.3921 -18.6585 -81.8744
rradius 23.426
rwrist 8.07772
rhand -11.8527 -52.82
rfingers 7.12502
rthumb 14.199 -82.3147
lclavicle 1.13804e-014 5.96354e-015
lhumerus -22.4218 -1.36647 86.8781
lradius 17.4671
lwrist -7.61295
lhand -26.5101 -13.8142
lfingers 7.12502
lthumb 0.053076 16.1656
rfemur -25.3689 7.30917 15.0943
rtibia 8.19165
rfoot -20.2109 -13.5591
rtoes -19.1555
lfemur -27.3918 -8.40542 -14.9676
ltibia 8.70111
lfoot -7.94835 8.48716
ltoes -37.8812
